<svg width="27" height="27" viewBox="0 0 27 27" fill="none" xmlns="http://www.w3.org/2000/svg">
<g clip-path="url(#clip0_162_13)">
<path d="M26.7047 0.202465C26.8432 0.320695 26.9397 0.480563 26.9799 0.658188C27.02 0.835812 27.0016 1.02166 26.9274 1.18796C24.3456 6.97609 18.9236 14.9748 14.9546 19.143C13.8421 20.309 12.4701 21.1959 10.9502 21.7316C10.9198 22.1147 10.8489 22.6395 10.6802 23.1963C10.341 24.3084 9.55461 25.6922 7.79792 26.1326C6.09664 26.5377 4.33352 26.6133 2.6038 26.3553C2.28216 26.3045 1.96505 26.2284 1.65542 26.1275C1.36897 26.0404 1.10199 25.8988 0.86905 25.7107C0.715439 25.5801 0.597073 25.413 0.5248 25.2247C0.435224 24.9831 0.437627 24.7171 0.53155 24.4772C0.691862 24.0637 1.0648 23.8359 1.30949 23.7144C1.97436 23.382 2.36417 22.95 2.77255 22.3205C2.93286 22.0775 3.08305 21.8193 3.25686 21.524L3.4543 21.1899C3.70911 20.7596 4.00442 20.2787 4.37567 19.7589C5.26667 18.5118 6.40236 18.198 7.32205 18.2469C7.53468 18.2587 7.73211 18.2891 7.9093 18.3279C8.01393 18.0377 8.14893 17.6867 8.31093 17.3019C8.75136 16.2573 9.4213 14.9073 10.314 13.8105C13.986 9.30484 20.7427 3.33784 25.6989 0.134965C25.8515 0.0364813 26.0318 -0.0101443 26.213 0.00201655C26.3942 0.0141774 26.5666 0.0844756 26.7047 0.202465ZM7.93968 20.1015C7.71575 20.0041 7.47639 19.9469 7.23261 19.9327C6.81749 19.9108 6.26568 20.0171 5.7493 20.741C5.41686 21.2051 5.15024 21.6388 4.90555 22.0522L4.72836 22.3509C4.54949 22.6563 4.36893 22.9618 4.18836 23.2419C3.84661 23.7956 3.41288 24.287 2.90586 24.6948C4.07024 24.8838 5.83536 24.8822 7.38955 24.4923C8.33286 24.2578 8.81211 23.5322 9.06524 22.7036C9.18742 22.292 9.25883 21.8669 9.27786 21.438L7.93968 20.1015ZM10.3697 20.1453C10.5722 20.0778 10.8371 19.9766 11.1426 19.8365C12.1147 19.3855 12.9933 18.7559 13.7329 17.9803C16.9391 14.612 21.1781 8.5809 23.9456 3.41546C19.575 6.66728 14.553 11.2792 11.6235 14.877C10.8776 15.7933 10.2819 16.9745 9.86511 17.9583C9.66093 18.4443 9.50399 18.8696 9.40105 19.1733V19.175L10.3714 20.1453H10.3697ZM1.97774 25.2753L1.98955 25.2669C1.98592 25.2697 1.98195 25.2719 1.97774 25.2737V25.2753ZM8.02236 20.1403L8.02574 20.142H8.02236V20.1403Z" fill="#FFDD2F"/>
</g>
<defs>
<clipPath id="clip0_162_13">
<rect width="27" height="27" fill="white"/>
</clipPath>
</defs>
</svg>
