<svg width="225" height="225" viewBox="0 0 225 225" fill="none" xmlns="http://www.w3.org/2000/svg">
<path d="M154.688 84.375C154.688 95.5638 150.243 106.294 142.331 114.206C134.419 122.118 123.689 126.562 112.5 126.562C101.311 126.562 90.5806 122.118 82.6689 114.206C74.7572 106.294 70.3125 95.5638 70.3125 84.375C70.3125 73.1862 74.7572 62.4556 82.6689 54.5439C90.5806 46.6322 101.311 42.1875 112.5 42.1875C123.689 42.1875 134.419 46.6322 142.331 54.5439C150.243 62.4556 154.688 73.1862 154.688 84.375Z" fill="#FFDD2F"/>
<path fill-rule="evenodd" clip-rule="evenodd" d="M0 112.5C0 82.6631 11.8526 54.0483 32.9505 32.9505C54.0483 11.8526 82.6631 0 112.5 0C142.337 0 170.952 11.8526 192.05 32.9505C213.147 54.0483 225 82.6631 225 112.5C225 142.337 213.147 170.952 192.05 192.05C170.952 213.147 142.337 225 112.5 225C82.6631 225 54.0483 213.147 32.9505 192.05C11.8526 170.952 0 142.337 0 112.5ZM112.5 14.0625C93.9625 14.0635 75.802 19.2989 60.1088 29.166C44.4155 39.0332 31.8274 53.1311 23.7932 69.8371C15.7591 86.5431 12.6054 105.178 14.6953 123.598C16.7851 142.017 24.0336 159.472 35.6063 173.953C45.5906 157.866 67.5703 140.625 112.5 140.625C157.43 140.625 179.395 157.852 189.394 173.953C200.966 159.472 208.215 142.017 210.305 123.598C212.395 105.178 209.241 86.5431 201.207 69.8371C193.173 53.1311 180.584 39.0332 164.891 29.166C149.198 19.2989 131.037 14.0635 112.5 14.0625Z" fill="#FFDD2F"/>
</svg>
